# xmcd
#
# Track frame offsets: 
#        150
#        23391
#        42726
#        59988
#        78392
#        97997
#        118239
#        136155
#        157827
#        180481
#
# Disc length: 2768 seconds
#
# Revision: 0
# Processed by: cddbd v1.5.2PL0 Copyright (c) Steve Scherf et al.
# Submitted via: ExactAudioCopy v0.95a5
#
DISCID=7d0ace0a
DTITLE=Cyril Neville &Tribe 13 - The Healing Dance
DYEAR=2007
DGENRE=Funk
TTITLE0=Let There Be Peace (In The World)
TTITLE1=Mean Things Happening
TTITLE2=Uptown Ruler
TTITLE3=The Price Of Freedom
TTITLE4=Cry, Cry, Cry (For New Orleans)
TTITLE5=Indians Got That Fire
TTITLE6=Jolly Man
TTITLE7=Dance Hall Lights
TTITLE8=Better Half
TTITLE9=H2O
EXTD=
EXTT0=
EXTT1=
EXTT2=
EXTT3=
EXTT4=
EXTT5=
EXTT6=
EXTT7=
EXTT8=
EXTT9=
PLAYORDER=
